<?xml version="1.0" encoding="UTF-8"?><svg id="Capa_2" xmlns="http://www.w3.org/2000/svg" viewBox="0 0 1080 1080"><defs><style>.cls-1{fill:#02060f;}.cls-2{fill:#d2d2d4;}</style></defs><g id="Capa_1-2"><g><rect class="cls-2" width="1080" height="1080"/><g><g><path class="cls-1" d="M851.1,489.9c0-6.28,4.97-11.09,11.19-11.09s11.3,4.81,11.3,11.04-4.97,10.93-11.3,10.93-11.19-4.71-11.19-10.88Zm19.88-.05c0-4.97-3.71-8.68-8.68-8.68s-8.53,3.71-8.53,8.74,3.66,8.58,8.53,8.58,8.68-3.71,8.68-8.63Zm-12.87,5.96v-11.93h4.66c2.83,0,4.66,1.52,4.66,3.87,0,1.62-.94,2.88-2.51,3.45l2.62,4.6h-2.88l-2.3-4.08h-1.67v4.08h-2.56Zm2.62-6.23h1.88c1.26,0,2.14-.68,2.14-1.83s-.84-1.73-2.14-1.73h-1.88v3.56Z"/><path class="cls-1" d="M589.82,584.07c-7.95,0-15.05-1.78-21.29-5.32-6.25-3.55-11.15-8.59-14.69-15.12-3.55-6.53-5.32-14.34-5.32-23.42v-59.94h21.93l.03,59.59c0,9.09,2.27,15.79,6.81,20.12,4.54,4.33,10.86,6.49,18.95,6.49,8.94,0,16.15-3.01,21.61-9.05,5.46-6.03,8.2-11.64,8.2-22.99l-.03-54.16h21.93v101.88h-18.76v-15.76h-6.15c-1.99,4.26-5.54,8.27-10.65,12.03-5.11,3.76-12.64,5.64-22.57,5.64Z"/><path class="cls-1" d="M665.13,582.16v-101.88h18.76v14.31h6.15c1.7-4.4,4.43-9.12,8.2-11.18,3.76-2.06,8.41-3.09,13.95-3.09h12.56v21.3h-13.41c-7.1,0-12.92,1.95-17.46,5.86-4.54,3.91-6.81,9.9-6.81,17.99v56.7h-21.93Z"/><path class="cls-1" d="M783.26,584.07c-7.95,0-15.05-1.78-21.29-5.32-6.25-3.55-11.15-8.59-14.69-15.12-3.55-6.53-5.32-14.34-5.32-23.42v-59.94h21.93l.03,59.59c0,9.09,2.27,15.79,6.81,20.12,4.54,4.33,10.86,6.49,18.95,6.49,8.94,0,16.15-3.01,21.61-9.05,5.46-6.03,8.2-11.64,8.2-22.99l-.03-54.16h21.93v101.88h-18.76v-15.76h-6.15c-1.99,4.26-5.54,8.27-10.65,12.03-5.11,3.76-12.64,5.64-22.57,5.64Z"/><path class="cls-1" d="M516.18,480.48v14.11h-4.31c-.66-.88-1.31-1.7-2.04-2.51-7.48-8.92-18.88-12.8-30.26-12.8-19.8,0-37.62,12.55-44.77,30.94-8.05,20.73-3.78,48.67,14.27,62.94,6.79,5.37,16.17,8.94,24.76,9.98,13.23,1.6,27.17-4.24,33.03-16.75h6.13v11.58c0,19.07-9.8,28.63-29.41,28.63-7.61,0-13.82-1.58-18.63-4.72-4.79-3.14-7.86-7.56-9.2-13.31h-19.36c.92,11.34,5.72,20.12,14.4,26.32,8.68,6.2,17.29,9.32,31.18,9.32,17.88,0,31.09-3.99,39.63-11.92,7.86-7.3,12.11-17.37,12.72-30.14l.1-101.68h-18.24Zm-11.38,75.39c-3.02,3.41-6.54,5.89-10.61,7.4-3.33,1.26-6.98,1.9-11.02,1.9-8.93,0-16.15-3.14-21.63-9.41-3.6-4.11-6.01-9.05-7.22-14.79-.66-2.99-.97-6.2-.97-9.63s.32-6.54,.95-9.49c1.22-5.79,3.62-10.78,7.25-14.91,3.77-4.33,8.37-7.15,13.77-8.49,2.46-.63,5.06-.92,7.86-.92,8.12,0,14.81,2.6,20.07,7.83,.54,.54,1.05,1.09,1.56,1.68,2.09,2.41,3.77,5.08,5.06,8.03,2.09,4.82,3.14,10.39,3.14,16.69,0,9.88-2.72,17.9-8.2,24.13Z"/></g><g><polygon class="cls-1" points="375.74 538.93 346.53 626.98 302.87 626.98 316.97 581.77 292.23 581.77 306.45 538.93 375.74 538.93"/><path class="cls-1" d="M292.22,453.02c-47.31,0-85.81,38.5-85.81,85.81,0,27.82,13.31,52.58,33.89,68.27l-6.21,19.89h43.14l15-45.21c-23.05,0-42.98-20.03-42.98-42.95s19.79-42.96,42.96-42.96c15.03,0,28.26,7.76,35.93,19.49h46.58c-10.22-35.95-43.35-62.33-82.52-62.33Z"/></g></g></g></g></svg>